<svg id="Layer_1" data-name="Layer 1" xmlns="http://www.w3.org/2000/svg" xmlns:xlink="http://www.w3.org/1999/xlink" viewBox="0 0 120.36 193.95"><defs><style>.cls-1{fill:#231f20;}.cls-2{fill:#fff;}.cls-3{fill:#dfc994;}.cls-4{mask:url(#mask);}.cls-5{opacity:0.79;}.cls-6{mask:url(#mask-2);}.cls-7{fill:#3d68a6;}.cls-8{filter:url(#luminosity-invert);}</style><filter id="luminosity-invert" filterUnits="userSpaceOnUse" color-interpolation-filters="sRGB"><feColorMatrix values="-1 0 0 0 1 0 -1 0 0 1 0 0 -1 0 1 0 0 0 1 0"/></filter><mask id="mask" x="0" y="4.69" width="120.36" height="187.83" maskUnits="userSpaceOnUse"><g class="cls-8"><g transform="translate(-130.37 -185.75)"><path class="cls-1" d="M236.65,285l-45.73,92.51a1.42,1.42,0,0,1-2.54,0L142.65,285a1.34,1.34,0,0,1,0-1.23l45.73-92.52a1.42,1.42,0,0,1,2.54,0l45.73,92.52A1.34,1.34,0,0,1,236.65,285Z"/></g></g></mask><mask id="mask-2" x="11.75" y="0" width="95.19" height="193.95" maskUnits="userSpaceOnUse"><g transform="translate(-130.37 -185.75)"><path class="cls-2" d="M165.93,277.86l-3.86,13.24a16.29,16.29,0,0,0-.84,4.13,2.31,2.31,0,0,0,1,2c.66.5,2.05.77,4.15.81l-.45,1.19h-21l.39-1.19a7.13,7.13,0,0,0,4.62-1.23c1-.81,1.87-2.64,2.69-5.47l8.12-28a14.41,14.41,0,0,0,.68-3.71,2.36,2.36,0,0,0-.84-2q-.84-.68-3.9-.9l.32-1.2h18.12q7.75,0,10.92,2.71a8.72,8.72,0,0,1,3.16,7,11.11,11.11,0,0,1-3.68,8.09q-2.31,2.25-8.21,3.9l3.93,13.24q1.57,5.33,2.75,6.42a6,6,0,0,0,3.92,1.19v1.19h-13.6l-6.19-21.33-1.06.06C166.79,277.92,166.43,277.9,165.93,277.86Zm.45-1.94c.76.05,1.39.07,1.91.07a10.18,10.18,0,0,0,7.73-3.22,11.85,11.85,0,0,0,3-8.45,6.38,6.38,0,0,0-1.61-4.7,5.74,5.74,0,0,0-4.26-1.61l-1.51,0Z"/><path class="cls-2" d="M223.78,299.19h-34.9l.35-1.19a7,7,0,0,0,4.56-1.21c1-.8,1.84-2.61,2.66-5.43l8.12-28.07a14.05,14.05,0,0,0,.68-3.64,2.48,2.48,0,0,0-1-2.06,6.92,6.92,0,0,0-3.8-.9l.35-1.2h21l-.35,1.2a7,7,0,0,0-4.53,1.35c-1,.86-1.88,2.61-2.66,5.25L206.86,289a34.55,34.55,0,0,0-1.42,6,1.56,1.56,0,0,0,.73,1.21,3.85,3.85,0,0,0,2.33.56,23.16,23.16,0,0,0,10.33-2.45,22.37,22.37,0,0,0,8.43-7.31h1.35Z"/></g></mask></defs><title>logo</title><path class="cls-3" d="M237,284.66l-46,91.75a1.42,1.42,0,0,1-2.55,0l-46-91.75a1.44,1.44,0,0,1,0-1.25l46-93.76a1.42,1.42,0,0,1,2.55,0l46,93.76A1.44,1.44,0,0,1,237,284.66Z" transform="translate(-130.37 -185.75)"/><path class="cls-1" d="M189.71,378.21a2.41,2.41,0,0,1-2.18-1.36l-46-91.75a2.42,2.42,0,0,1,0-2.13l46-93.76a2.43,2.43,0,0,1,4.35,0l46,93.76a2.42,2.42,0,0,1,0,2.13l-46,91.75A2.41,2.41,0,0,1,189.71,378.21Zm0-188.35a.41.41,0,0,0-.38.23l-46,93.76a.4.4,0,0,0,0,.37l46,93.75c.1.21.28-1.76.38-1.76s.27,2,.37,1.76l46-93.75a.4.4,0,0,0,0-.37l-46-93.76A.4.4,0,0,0,189.71,189.86Z" transform="translate(-130.37 -185.75)"/><g class="cls-4"><g class="cls-5"><path class="cls-2" d="M190.54,339.21a60.16,60.16,0,1,1,60.18-60.09A60.13,60.13,0,0,1,190.54,339.21Zm21.21-26.68c.51-1.59,1-3.08,1.45-4.59a97,97,0,0,0,3-13.59c.06-.4,0-.58-.46-.65-1.64-.27-3.27-.61-4.92-.88a115,115,0,0,0-17.29-1.41h-1.68v18.42A73.74,73.74,0,0,1,211.75,312.53ZM172.07,245.2a93.87,93.87,0,0,0-5,18.62c3.14.51,6.19,1,9.24,1.49a119.1,119.1,0,0,0,14,1.07c.41,0,.53-.1.53-.52,0-1.8,0-3.59,0-5.39,0-4,0-7.93,0-11.9,0-.54-.17-.67-.68-.67-.93,0-1.87-.06-2.8-.11a64.89,64.89,0,0,1-10.39-1.41C175.33,246,173.74,245.61,172.07,245.2Zm38.37.43-.43.08a70.81,70.81,0,0,1-17.57,2.22c-.42,0-.61.08-.6.57q0,8.61,0,17.23c0,.21,0,.42.07.66a119.33,119.33,0,0,0,23.75-2.28A106.46,106.46,0,0,0,210.44,245.63Zm-19.66,45.78h-.65a116.75,116.75,0,0,0-13.6,1c-3,.42-5.91,1-8.87,1.48-.35,0-.41.18-.33.51.13.6.23,1.22.34,1.83a99.93,99.93,0,0,0,3,11.79c.48,1.51,1,3,1.54,4.55a69.9,69.9,0,0,1,18.54-2.75Zm-59.35-12.23a58.87,58.87,0,0,0,6.29,26.41,64.16,64.16,0,0,1,12.9-7.39,78.78,78.78,0,0,1-2.85-19Zm111.86,26.56a59.06,59.06,0,0,0,6.36-26.56H233.13a76.7,76.7,0,0,1-2.07,17.91c2.23,1.25,4.44,2.4,6.55,3.69A22.27,22.27,0,0,1,243.29,305.74Zm-95.54-27.69v-.45a74.22,74.22,0,0,1,2.1-17.75c.11-.42.05-.59-.35-.77a64.4,64.4,0,0,1-9.14-5c-.85-.56-1.67-1.15-2.53-1.75a56.87,56.87,0,0,0-4.66,12.49,60.32,60.32,0,0,0-1.73,13.26Zm101.89,0a59.09,59.09,0,0,0-6.48-26,1.83,1.83,0,0,1-.18.31,28.57,28.57,0,0,1-8.54,6.46c-1.1.57-2.23,1.08-3.34,1.65a.56.56,0,0,0-.26.42c.12.69.28,1.36.44,2A66.28,66.28,0,0,1,233,275c.06,1,.1,2,.15,3Zm-32.48,1.13H191.88v11.13a121,121,0,0,1,24.56,2.41A87.87,87.87,0,0,0,217.16,279.19ZM167,293a117.33,117.33,0,0,1,23.74-2.66V279.18H165.9A103.29,103.29,0,0,0,167,293Zm-15.77-34.31A89.11,89.11,0,0,0,166,263.48a94.58,94.58,0,0,1,5.06-18.64,54.66,54.66,0,0,1-11.78-5.29A75.88,75.88,0,0,0,151.26,258.69Zm40.62,69.9.37,0a51.56,51.56,0,0,1,11.35,1.14c.36.08.44-.09.57-.33a119,119,0,0,0,5.91-12.51c.44-1.09.84-2.21,1.29-3.38a71.61,71.61,0,0,0-19.49-2.64Zm-26-50.55h24.86V267.43a118.5,118.5,0,0,1-23.87-2.65A85.6,85.6,0,0,0,165.91,278Zm49.91-12.87a119,119,0,0,1-23.93,2.28v10.6h25.26A92.64,92.64,0,0,0,215.82,265.17Zm-44.6,47.72a103.67,103.67,0,0,1-5-18.66,91.49,91.49,0,0,0-14.31,4.6,89.69,89.69,0,0,0,8,19A54.22,54.22,0,0,1,171.22,312.89Zm19.55-2a68.84,68.84,0,0,0-18.16,2.69c.8,1.95,1.48,3.87,2.35,5.7,1.62,3.42,3.36,6.79,5,10.19.17.33.34.38.69.3a47,47,0,0,1,7.83-1.06c.74,0,1.49-.09,2.26-.14Zm19.29-66.32c-.46-1.11-.88-2.16-1.31-3.2a135.42,135.42,0,0,0-6.33-12.92.5.5,0,0,0-.61-.28c-2.44.34-4.89.69-7.33,1-.85.1-1.71.09-2.6.13v17.56A71.85,71.85,0,0,0,210.06,244.59ZM159,318.27a89.6,89.6,0,0,1-8.05-19,61.43,61.43,0,0,0-12.68,7.32,59,59,0,0,0,13.63,17.15C154.23,321.89,156.56,320.11,159,318.27Zm31.81-88.94a3.32,3.32,0,0,0-.41,0,44.62,44.62,0,0,1-9.5-1,.54.54,0,0,0-.68.36c-1.76,3.32-3.57,6.61-5.28,9.95-.9,1.77-1.62,3.64-2.45,5.53a68.51,68.51,0,0,0,18.32,2.73Zm-24.9,63.93-1.23-14.07h-15.8a77.58,77.58,0,0,0,2.78,18.57A88.59,88.59,0,0,1,165.87,293.26Zm-17-15.23h15.81c.34-4.53.68-9,1-13.53a89.91,89.91,0,0,1-14.7-4.76A72.09,72.09,0,0,0,148.84,278Zm81.46-42.74a37,37,0,0,1-7.44,5.43,90.05,90.05,0,0,1,7.62,18.84,1.23,1.23,0,0,0,.25-.08,40.31,40.31,0,0,0,7.14-3.93,22.66,22.66,0,0,0,4.43-4,.73.73,0,0,0,.08-1A60.07,60.07,0,0,0,233,238C232.14,237.06,231.22,236.19,230.3,235.29Zm-13.6,28.6A75.94,75.94,0,0,0,229.49,260a88,88,0,0,0-7.58-18.78,56.77,56.77,0,0,1-10.43,4.1A108.24,108.24,0,0,1,216.7,263.89Zm14.05,58.73c.36-.42.76-1,1.24-1.45a59.09,59.09,0,0,0,10.12-13.25c.69-1.21.67-1.2-.28-2.24a28.11,28.11,0,0,0-7.59-5.67c-1.12-.6-2.27-1.14-3.47-1.74a94.14,94.14,0,0,1-7.16,19Zm-92.4-71.35c2.25,1.95,9.54,6.19,11.91,6.94a77.47,77.47,0,0,1,8.06-19.14l-6.27-4.87A59.44,59.44,0,0,0,138.35,251.27Zm84.19,65.62c.07-.07.11-.1.12-.13.16-.31.31-.62.46-.93a91.41,91.41,0,0,0,6.52-17.45c.09-.37.06-.57-.33-.7-2.09-.72-4.16-1.51-6.27-2.16-1.85-.58-3.73-1-5.67-1.53a100.54,100.54,0,0,1-4.61,18.85A53.44,53.44,0,0,1,222.54,316.89ZM230,296.81a73.5,73.5,0,0,0,2.09-17.62H218.41c-.24,4.64-.49,9.2-.74,13.81A76.73,76.73,0,0,1,230,296.81Zm-11.62-18.76h0l13.32,0c.3,0,.35-.13.34-.41A73.31,73.31,0,0,0,231,266.91c-.34-1.94-.77-3.86-1.17-5.87a78.75,78.75,0,0,1-12.8,3.89Zm-58.51-39.49c1.77,1.44,9.67,5,11.61,5.21a107.63,107.63,0,0,1,7.86-15.8c-3-.86-5.88-1.89-8.22-4.07A88.51,88.51,0,0,0,159.87,238.56Zm.62,80.22A104.9,104.9,0,0,0,171.23,334a20.06,20.06,0,0,1,7.91-3.88,129.83,129.83,0,0,1-7.54-16.24A52.41,52.41,0,0,0,160.49,318.78Zm50.09-94.58c-2,2-4.6,2.85-7.24,3.64.08.17.13.31.2.43a132.86,132.86,0,0,1,7.39,15.64c.14.35.29.39.62.27,2.35-.85,4.72-1.66,7.06-2.55a30.83,30.83,0,0,0,2.78-1.35A117.07,117.07,0,0,0,210.58,224.2Zm1.81,89.65A116,116,0,0,1,205,330.08c2.7.78,5.25,1.66,7.33,3.55a123.6,123.6,0,0,0,9.73-15.75A52.08,52.08,0,0,0,212.39,313.85Zm17.1-79.26A58,58,0,0,0,211.84,224a124.47,124.47,0,0,1,10.5,15.8A35,35,0,0,0,229.49,234.59ZM170.1,334.44a112.37,112.37,0,0,1-10.54-15.1,40.52,40.52,0,0,0-6.75,5.19A57.24,57.24,0,0,0,170.1,334.44ZM214,333.23a57.74,57.74,0,0,0,15.6-9.88,33.2,33.2,0,0,0-6.6-4.93A134.92,134.92,0,0,1,214,333.23Zm-10.61-2.42a52.77,52.77,0,0,0-11.55-1.12v8.37a1.43,1.43,0,0,0,.2.05c2.35-.2,4.71-.39,7.06-.6a.8.8,0,0,0,.48-.38c.51-.78,1-1.58,1.48-2.38C201.87,333.47,202.63,332.17,203.43,330.81Zm-33.71-107A58.16,58.16,0,0,0,153,233.42a40.71,40.71,0,0,0,6,4.62A92.91,92.91,0,0,1,169.72,223.77Zm21.05,114.42v-8.48a50.16,50.16,0,0,0-10,1.14.81.81,0,0,0,.06.2c1.32,2.2,2.63,4.4,4,6.59a.6.6,0,0,0,.39.25C187.05,338,188.88,338.09,190.77,338.19Zm10.88-111.06c-.39-.69-.75-1.32-1.12-1.94q-1.36-2.24-2.74-4.45a.87.87,0,0,0-.53-.38c-1.18-.14-2.37-.25-3.56-.33-.59,0-1.19,0-1.82,0v8.2A46.16,46.16,0,0,0,201.65,227.13Zm-20.57.05c.08.06.11.1.14.1a48.72,48.72,0,0,0,9.17,1c.43,0,.41-.23.41-.52q0-3.72,0-7.43a1.87,1.87,0,0,0,0-.32l-.3,0c-1.47.06-2.93.11-4.4.19a.69.69,0,0,0-.45.31c-1,1.49-2.06,3-3.07,4.49C182,225.68,181.56,226.44,181.08,227.18ZM171.71,223c.21.19.34.32.48.43a19.06,19.06,0,0,0,7.29,3.44.52.52,0,0,0,.7-.26c1-1.59,2-3.16,3.09-4.74.34-.51.7-1,1.1-1.6A58.36,58.36,0,0,0,171.71,223ZM183.6,337.78c-1.33-2.24-2.55-4.32-3.8-6.39a.51.51,0,0,0-.47-.14c-.66.17-1.31.36-1.94.59a15.91,15.91,0,0,0-5.06,2.69c-.14.11-.32.35-.28.45a.74.74,0,0,0,.46.36c2.08.55,4.16,1.14,6.26,1.61C180.32,337.3,181.9,337.49,183.6,337.78Zm26.3-114.37-.05-.21A53.63,53.63,0,0,0,199,220.56c1.23,2.08,2.42,4.09,3.63,6.1a.45.45,0,0,0,.4.12,18.2,18.2,0,0,0,5.44-2.27C209,224.18,209.43,223.77,209.9,223.41Zm1.61,110.9a16.79,16.79,0,0,0-7-3.23l-3.65,6.15A58.74,58.74,0,0,0,211.51,334.31Z" transform="translate(-130.37 -185.75)"/></g></g><g class="cls-6"><polygon class="cls-7" points="106.93 96.97 59.34 193.95 11.75 96.97 59.34 0 106.93 96.97"/></g><path class="cls-7" d="M189.71,378.76a3.41,3.41,0,0,1-3.08-1.92l-45.45-92.6a3.48,3.48,0,0,1,0-3l45.45-92.61a3.43,3.43,0,0,1,6.15,0l45.45,92.61a3.48,3.48,0,0,1,0,3h0l-45.45,92.6A3.41,3.41,0,0,1,189.71,378.76Zm0-189.06a.41.41,0,0,0-.39.24l-45.44,92.6a.42.42,0,0,0,0,.38l45.44,92.6a.41.41,0,0,0,.39.24.4.4,0,0,0,.38-.24l45.45-92.6h0a.46.46,0,0,0,0-.38l-45.45-92.6A.4.4,0,0,0,189.71,189.7Z" transform="translate(-130.37 -185.75)"/></svg>